<svg width="88" height="104" viewBox="0 0 88 104" fill="none" xmlns="http://www.w3.org/2000/svg">
<path d="M44 103.8C69.95 103.8 87.5 91.65 87.5 73.8C87.5 60 74.9 51.6 63.8 50.4C76.55 48.3 85.85 38.85 85.85 28.2C85.85 11.7 71.75 0.449999 44.15 0.449997C24.65 0.449995 11 7.2 2.15 16.95L16.4 35.85C23.3 30.15 32.3 27.15 40.85 27.15C49.55 27.15 55.7 28.95 55.7 33.6C55.7 36.75 51.5 38.55 41.9 38.55C38.3 38.55 29.3 38.55 27.35 38.4L27.35 65.25C28.85 65.1 37.55 64.95 41.9 64.95C55.25 64.95 57.35 66.9 57.35 70.35C57.35 73.95 52.7 77.1 42.8 77.1C35.15 77.1 23.45 74.25 15.65 67.5L0.799997 88.2C9.2 97.2 24.2 103.8 44 103.8Z" fill="#52DEE5"/>
</svg>
