<svg width="95" height="103" viewBox="0 0 95 103" fill="none" xmlns="http://www.w3.org/2000/svg">
<rect x="2.5" y="2.5" width="90" height="98" stroke="white" stroke-width="5"/>
<path d="M36.8401 36L30.6721 19.992H26.4001L20.2321 36H24.0961L25.1041 33.288H31.9681L32.9761 36H36.8401ZM31.0321 30.288H26.0401L28.5361 23.4L31.0321 30.288ZM55.6704 36V19.992H50.8704L46.9824 30L43.0944 19.992H38.3184V36H41.7264V24.456L46.2384 36H47.7264L52.2384 24.456V36H55.6704ZM73.7776 36L67.6096 19.992H63.3376L57.1696 36H61.0336L62.0416 33.288H68.9056L69.9136 36H73.7776ZM67.9696 30.288H62.9776L65.4736 23.4L67.9696 30.288ZM25.714 59.288C30.01 59.288 32.122 57.08 32.122 54.152C32.122 48.176 22.93 49.88 22.93 47.36C22.93 46.4 23.746 45.776 25.186 45.776C26.818 45.776 28.546 46.328 29.842 47.528L31.738 44.984C30.154 43.52 28.042 42.752 25.498 42.752C21.73 42.752 19.426 44.96 19.426 47.624C19.426 53.648 28.642 51.704 28.642 54.488C28.642 55.424 27.754 56.264 25.858 56.264C23.65 56.264 21.898 55.256 20.77 54.08L18.898 56.744C20.41 58.256 22.618 59.288 25.714 59.288ZM45.7206 59V56H37.8006V52.352H45.5526V49.352H37.8006V45.992H45.7206V42.992H34.3926V59H45.7206ZM54.0968 59.288C58.3928 59.288 60.5048 57.08 60.5048 54.152C60.5048 48.176 51.3128 49.88 51.3128 47.36C51.3128 46.4 52.1288 45.776 53.5688 45.776C55.2008 45.776 56.9288 46.328 58.2248 47.528L60.1208 44.984C58.5368 43.52 56.4248 42.752 53.8808 42.752C50.1128 42.752 47.8088 44.96 47.8088 47.624C47.8088 53.648 57.0248 51.704 57.0248 54.488C57.0248 55.424 56.1368 56.264 54.2408 56.264C52.0328 56.264 50.2808 55.256 49.1528 54.08L47.2808 56.744C48.7928 58.256 51.0008 59.288 54.0968 59.288ZM68.4874 59.288C72.7834 59.288 74.8954 57.08 74.8954 54.152C74.8954 48.176 65.7034 49.88 65.7034 47.36C65.7034 46.4 66.5194 45.776 67.9594 45.776C69.5914 45.776 71.3194 46.328 72.6154 47.528L74.5114 44.984C72.9274 43.52 70.8154 42.752 68.2714 42.752C64.5034 42.752 62.1994 44.96 62.1994 47.624C62.1994 53.648 71.4154 51.704 71.4154 54.488C71.4154 55.424 70.5274 56.264 68.6314 56.264C66.4234 56.264 64.6714 55.256 63.5434 54.08L61.6714 56.744C63.1834 58.256 65.3914 59.288 68.4874 59.288ZM30.7811 82V65.992H27.3731V82H30.7811ZM41.567 82.288C46.391 82.288 49.919 78.832 49.919 74.008C49.919 69.184 46.391 65.728 41.567 65.728C36.719 65.728 33.191 69.184 33.191 74.008C33.191 78.832 36.719 82.288 41.567 82.288ZM41.567 79.264C38.591 79.264 36.695 76.984 36.695 74.008C36.695 71.008 38.591 68.752 41.567 68.752C44.519 68.752 46.415 71.008 46.415 74.008C46.415 76.984 44.519 79.264 41.567 79.264ZM66.6386 82V65.992H63.2306V76.048L55.8146 65.992H52.3106V82H55.7186V71.56L63.3506 82H66.6386Z" fill="white"/>
</svg>
