<svg width="48" height="48" viewBox="0 0 48 48" fill="none" xmlns="http://www.w3.org/2000/svg">
<g clip-path="url(#clip0)">
<path d="M46.6932 31.863L44.1843 31.2355C43.9745 30.5429 43.6959 29.8725 43.3529 29.2353L44.6844 27.0166C44.8735 26.7017 44.8238 26.2986 44.5644 26.0388L42.0672 23.5384C41.8074 23.2786 41.4042 23.2294 41.0894 23.4185L38.8707 24.7499C38.5828 24.5956 38.2866 24.453 37.985 24.3233C37.6194 24.1682 37.2455 24.033 36.865 23.9186L36.2375 21.4092C36.1488 21.053 35.8289 20.8029 35.4616 20.8029H31.9323C31.565 20.8029 31.2451 21.053 31.156 21.4092L30.529 23.9186C29.8359 24.1284 29.1659 24.4069 28.5287 24.7499L26.31 23.4185C25.9951 23.2294 25.592 23.2786 25.3322 23.5384L22.8318 26.0356C22.572 26.2954 22.5228 26.6986 22.7119 27.0135L24.0433 29.2322C23.6999 29.8693 23.4218 30.5394 23.212 31.2324L20.7026 31.8595C20.3463 31.9485 20.0963 32.2685 20.0963 32.6357V36.1674C20.0963 36.5347 20.3463 36.8546 20.7026 36.9433L23.212 37.5708C23.4218 38.2634 23.6999 38.9334 24.0433 39.571L22.7119 41.7897C22.5228 42.1046 22.572 42.5077 22.8318 42.7675L25.329 45.2647C25.5888 45.5242 25.992 45.5738 26.3065 45.3847L28.5252 44.0533C29.1628 44.3963 29.8328 44.6748 30.5254 44.8846L31.1529 47.3935C31.2419 47.7498 31.5619 47.9999 31.9291 48.0003H35.4609C35.8281 47.9999 36.1481 47.7498 36.2368 47.3935L36.8642 44.8846C37.5568 44.6748 38.2269 44.3963 38.8644 44.0533L41.0831 45.3847C41.398 45.5738 41.8012 45.5242 42.061 45.2647L44.5578 42.7675C44.8176 42.5077 44.8672 42.1046 44.6781 41.7897L43.3467 39.571C43.6897 38.9334 43.9683 38.2634 44.178 37.5708L46.687 36.9433C47.0433 36.8546 47.2933 36.5347 47.2933 36.1674V32.6389C47.2941 32.2736 47.0472 31.954 46.6932 31.863ZM45.6997 35.5455L43.3451 36.1346C43.0588 36.2057 42.8353 36.428 42.7626 36.714C42.5423 37.5809 42.1981 38.4115 41.7398 39.1796C41.589 39.4327 41.589 39.748 41.7398 40.0008L42.9896 42.0811L41.3792 43.6981L39.2989 42.4484C39.0461 42.2972 38.7308 42.2972 38.4781 42.4484C37.7096 42.9062 36.879 43.2508 36.0121 43.4708C35.7261 43.5434 35.5038 43.7673 35.4327 44.0533L34.8389 46.4063H32.557L31.9682 44.0517C31.8971 43.7657 31.6744 43.5419 31.3888 43.4692C30.5219 43.2489 29.6913 42.9047 28.9229 42.4464C28.6701 42.2956 28.3548 42.2956 28.1021 42.4464L26.0217 43.6962L24.4047 42.0858L25.6545 40.0055C25.8057 39.7527 25.8057 39.4374 25.6545 39.1846C25.1966 38.4162 24.852 37.5856 24.6321 36.7187C24.5594 36.4331 24.3356 36.2104 24.0496 36.1393L21.6965 35.5455V33.2639L24.0511 32.6748C24.3371 32.6037 24.561 32.3814 24.6336 32.0954C24.8536 31.2285 25.1982 30.3979 25.656 29.6299C25.8072 29.3767 25.8072 29.0614 25.656 28.8087L24.4063 26.7283L26.017 25.1113L28.0974 26.3611C28.3502 26.5123 28.6654 26.5123 28.9182 26.3611C29.6867 25.9032 30.5172 25.5586 31.3841 25.3387C31.6697 25.266 31.8924 25.0421 31.9635 24.7562L32.557 22.4031H34.8389L35.428 24.7577C35.4992 25.0437 35.7214 25.2676 36.007 25.3402C36.8739 25.5598 37.7045 25.904 38.4722 26.3622C38.7254 26.5134 39.041 26.5134 39.2942 26.3622L41.3742 25.1125L42.9912 26.7236L41.7414 28.804C41.5906 29.0567 41.5906 29.372 41.7414 29.6248C42.1997 30.3932 42.5438 31.2238 42.7642 32.0907C42.8369 32.3763 43.0603 32.599 43.3467 32.6701L45.6997 33.2639V35.5455Z" fill="#2F2FA2"/>
<path d="M33.6981 28.0038C30.1629 28.0038 27.2972 30.8694 27.2972 34.4047C27.2972 37.9399 30.1629 40.8055 33.6981 40.8055C37.2329 40.8055 40.099 37.9399 40.099 34.4047C40.095 30.8714 37.2314 28.0077 33.6981 28.0038ZM33.6981 39.2053C31.0466 39.2053 28.8975 37.0558 28.8975 34.4047C28.8975 31.7535 31.0466 29.604 33.6981 29.604C36.3492 29.604 38.4987 31.7535 38.4987 34.4047C38.496 37.055 36.3481 39.2026 33.6981 39.2053Z" fill="#2F2FA2"/>
<path d="M37.6986 9.60133H39.2988V22.403H37.6986V9.60133Z" fill="#2F2FA2"/>
<path d="M4.0941 40.8055V44.0059C4.0941 44.4478 4.45235 44.806 4.89421 44.806H21.6965V43.2058H5.69432V40.8055H15.2956C15.4194 40.8066 15.5417 40.7793 15.6531 40.7254L18.8535 39.1252C19.125 38.99 19.2969 38.7126 19.2969 38.4091C19.2969 38.1059 19.125 37.8285 18.8535 37.6929L15.6531 36.0927C15.5425 36.0361 15.4198 36.006 15.2956 36.0048H5.69432V8.8012H36.0984C37.8658 8.8012 39.2988 7.3682 39.2988 5.60078V4.00056C39.2988 3.55871 38.9405 3.20046 38.4987 3.20046H36.0984V4.80067H37.6986V5.60078C37.6986 6.48449 36.9821 7.20099 36.0984 7.20099C35.2147 7.20099 34.4982 6.48449 34.4982 5.60078V3.20046C34.4982 2.31675 35.2147 1.60024 36.0984 1.60024H39.2988C40.1825 1.60024 40.899 2.31675 40.899 3.20046V21.6029H42.4992V3.20046C42.4992 1.43303 41.0662 3.05176e-05 39.2988 3.05176e-05H4.0941C2.32629 3.05176e-05 0.893677 1.43303 0.893677 3.20046V5.60078C0.893677 7.3682 2.32629 8.8012 4.0941 8.8012V36.0048H3.294C1.96843 36.0048 0.893677 37.0796 0.893677 38.4052C0.893677 39.7307 1.96843 40.8055 3.294 40.8055H4.0941ZM2.49389 5.60078V3.20046C2.49389 2.31675 3.21039 1.60024 4.0941 1.60024H33.3425C33.0546 2.08468 32.9011 2.6371 32.8979 3.20046V5.60078C32.9011 6.16413 33.0546 6.71655 33.3425 7.20099H4.0941C3.21039 7.20099 2.49389 6.48449 2.49389 5.60078ZM16.7067 38.4052L15.1065 39.2053H14.4955V37.605H15.1065L16.7067 38.4052ZM2.49389 38.4052C2.49389 37.9633 2.85214 37.605 3.294 37.605H12.8953V39.2053H3.294C2.85214 39.2053 2.49389 38.847 2.49389 38.4052Z" fill="#2F2FA2"/>
<path d="M0.893677 12.0017H2.49389V28.0038H0.893677V12.0017Z" fill="#2F2FA2"/>
<path d="M32.098 12.8018V11.2016H21.6966C21.4844 11.2016 21.2809 11.286 21.1309 11.436L19.669 12.8979C16.174 10.3363 11.3323 10.7102 8.27214 13.7781C7.95999 14.0903 7.95999 14.597 8.27214 14.9091L13.9299 20.5669C14.0796 20.7173 14.2831 20.8025 14.4956 20.8029H22.4967C22.9385 20.8029 23.2968 20.4446 23.2968 20.0028C23.296 17.7505 22.4287 15.585 20.8738 13.9555L22.0279 12.8018H32.098ZM21.6517 19.2027H14.8269L10.0005 14.3763C12.4602 12.4069 15.9169 12.2725 18.5223 14.0446L16.3302 16.2367L17.4616 17.3681L19.7467 15.083C20.8109 16.214 21.4794 17.6595 21.6517 19.2027Z" fill="#2F2FA2"/>
<path d="M33.6982 11.2016H35.2985V12.8018H33.6982V11.2016Z" fill="#2F2FA2"/>
<path d="M9.69485 23.2031H11.2951V24.8033H9.69485V23.2031Z" fill="#2F2FA2"/>
<path d="M12.8954 23.2031H20.8965V24.8033H12.8954V23.2031Z" fill="#2F2FA2"/>
<path d="M8.09485 26.4036H20.8966V28.0038H8.09485V26.4036Z" fill="#2F2FA2"/>
<path d="M25.6973 14.4019H27.2975V16.0021H25.6973V14.4019Z" fill="#2F2FA2"/>
<path d="M28.8975 14.4019H35.2983V16.0021H28.8975V14.4019Z" fill="#2F2FA2"/>
<path d="M25.6973 17.6024H35.2985V19.2026H25.6973V17.6024Z" fill="#2F2FA2"/>
<path d="M8.09485 29.6039H18.4962V31.2041H8.09485V29.6039Z" fill="#2F2FA2"/>
</g>
<defs>
<clipPath id="clip0">
<rect width="48" height="48" fill="white"/>
</clipPath>
</defs>
</svg>
