<svg width="447" height="355" viewBox="0 0 447 355" fill="none" xmlns="http://www.w3.org/2000/svg">
<path d="M58.4092 181.969C56.4272 183.951 53.0438 183.821 50.8581 181.635C48.6928 179.47 48.5238 176.085 50.5245 174.084C52.5252 172.084 55.8899 172.232 58.0756 174.418C60.2409 176.583 60.3913 179.987 58.4092 181.969Z" fill="#2F2FA2" fill-opacity="0.2"/>
<path d="M92.3292 148.049C90.3472 150.031 86.9638 149.901 84.7781 147.715C82.6129 145.55 82.4438 142.165 84.4445 140.164C86.4265 138.182 89.8099 138.312 91.9956 140.498C94.1421 142.682 94.3112 146.067 92.3292 148.049Z" fill="#2F2FA2" fill-opacity="0.2"/>
<path d="M126.229 114.149C124.247 116.131 120.864 116.001 118.678 113.816C116.513 111.65 116.344 108.265 118.344 106.264C120.326 104.282 123.71 104.412 125.895 106.598C128.061 108.763 128.23 112.149 126.229 114.149Z" fill="#2F2FA2" fill-opacity="0.2"/>
<path d="M160.149 80.2292C158.167 82.2112 154.783 82.0814 152.598 79.8957C150.432 77.7305 150.263 74.3452 152.264 72.3445C154.246 70.3625 157.63 70.4925 159.815 72.6781C161.981 74.8434 162.131 78.2472 160.149 80.2292Z" fill="#2F2FA2" fill-opacity="0.2"/>
<path d="M194.049 46.3288C192.067 48.3108 188.684 48.181 186.498 45.9953C184.333 43.83 184.164 40.4447 186.165 38.4439C188.147 36.4619 191.53 36.5919 193.716 38.7776C195.881 40.9428 196.05 44.328 194.049 46.3288Z" fill="#2F2FA2" fill-opacity="0.2"/>
<path d="M227.968 12.4098C225.986 14.3918 222.603 14.2618 220.417 12.0762C218.252 9.91096 218.083 6.52583 220.084 4.52514C222.084 2.52446 225.449 2.67312 227.635 4.85876C229.8 7.02397 229.95 10.4278 227.968 12.4098Z" fill="#2F2FA2" fill-opacity="0.2"/>
<path d="M92.1958 215.755C90.2138 217.737 86.8304 217.607 84.6447 215.422C82.4795 213.257 82.3104 209.871 84.3111 207.871C86.3118 205.87 89.6765 206.019 91.8622 208.204C94.0275 210.37 94.1778 213.773 92.1958 215.755Z" fill="#2F2FA2" fill-opacity="0.2"/>
<path d="M126.116 181.835C124.134 183.818 120.75 183.688 118.565 181.502C116.399 179.337 116.23 175.951 118.231 173.951C120.213 171.969 123.597 172.099 125.782 174.284C127.929 176.468 128.098 179.853 126.116 181.835Z" fill="#2F2FA2" fill-opacity="0.2"/>
<path d="M160.016 147.936C158.034 149.918 154.65 149.788 152.465 147.602C150.299 145.437 150.13 142.052 152.131 140.051C154.113 138.069 157.496 138.199 159.682 140.385C161.847 142.55 162.016 145.935 160.016 147.936Z" fill="#2F2FA2" fill-opacity="0.2"/>
<path d="M193.936 114.016C191.954 115.998 188.57 115.868 186.384 113.682C184.219 111.517 184.05 108.132 186.051 106.131C188.033 104.149 191.416 104.279 193.602 106.465C195.767 108.63 195.918 112.034 193.936 114.016Z" fill="#2F2FA2" fill-opacity="0.2"/>
<path d="M227.836 80.1152C225.854 82.0972 222.471 81.9673 220.285 79.7817C218.12 77.6164 217.951 74.2312 219.951 72.2305C221.933 70.2485 225.317 70.3784 227.503 72.5641C229.668 74.7293 229.837 78.1145 227.836 80.1152Z" fill="#2F2FA2" fill-opacity="0.2"/>
<path d="M261.755 46.1963C259.773 48.1783 256.39 48.0484 254.204 45.8627C252.039 43.6975 251.87 40.3123 253.87 38.3116C255.871 36.3108 259.236 36.4595 261.421 38.6452C263.587 40.8104 263.737 44.2143 261.755 46.1963Z" fill="#2F2FA2" fill-opacity="0.2"/>
<path d="M125.963 249.523C123.981 251.505 120.597 251.375 118.412 249.189C116.247 247.024 116.077 243.639 118.078 241.638C120.079 239.637 123.444 239.786 125.629 241.972C127.815 244.157 127.945 247.541 125.963 249.523Z" fill="#2F2FA2" fill-opacity="0.2"/>
<path d="M159.882 215.601C157.9 217.583 154.516 217.453 152.33 215.268C150.165 213.102 149.996 209.717 151.997 207.717C153.979 205.735 157.362 205.865 159.548 208.05C161.715 210.255 161.864 213.619 159.882 215.601Z" fill="#2F2FA2" fill-opacity="0.2"/>
<path d="M193.781 181.702C191.799 183.684 188.416 183.554 186.23 181.368C184.065 179.203 183.896 175.818 185.897 173.817C187.879 171.835 191.262 171.965 193.448 174.151C195.633 176.336 195.782 179.701 193.781 181.702Z" fill="#2F2FA2" fill-opacity="0.2"/>
<path d="M227.701 147.782C225.719 149.764 222.336 149.634 220.15 147.448C217.985 145.283 217.816 141.898 219.817 139.897C221.799 137.915 225.182 138.045 227.368 140.231C229.553 142.416 229.683 145.8 227.701 147.782Z" fill="#2F2FA2" fill-opacity="0.2"/>
<path d="M261.602 113.881C259.62 115.863 256.236 115.733 254.051 113.548C251.885 111.382 251.716 107.997 253.717 105.996C255.699 104.014 259.083 104.144 261.268 106.33C263.454 108.516 263.603 111.881 261.602 113.881Z" fill="#2F2FA2" fill-opacity="0.2"/>
<path d="M295.521 79.9623C293.539 81.9443 290.155 81.8143 287.97 79.6286C285.804 77.4634 285.635 74.0783 287.636 72.0776C289.637 70.0769 293.001 70.2256 295.187 72.4112C297.373 74.5969 297.503 77.9803 295.521 79.9623Z" fill="#2F2FA2" fill-opacity="0.2"/>
<path d="M159.749 283.308C157.767 285.29 154.383 285.16 152.198 282.975C150.032 280.809 149.863 277.424 151.864 275.423C153.865 273.423 157.229 273.571 159.415 275.757C161.58 277.922 161.731 281.326 159.749 283.308Z" fill="#2F2FA2" fill-opacity="0.2"/>
<path d="M193.668 249.388C191.686 251.37 188.303 251.24 186.117 249.054C183.952 246.889 183.783 243.504 185.784 241.503C187.766 239.521 191.149 239.651 193.335 241.837C195.481 244.021 195.65 247.406 193.668 249.388Z" fill="#2F2FA2" fill-opacity="0.2"/>
<path d="M227.568 215.488C225.586 217.47 222.203 217.34 220.017 215.155C217.852 212.989 217.683 209.604 219.683 207.604C221.665 205.622 225.049 205.752 227.235 207.937C229.4 210.102 229.569 213.488 227.568 215.488Z" fill="#2F2FA2" fill-opacity="0.2"/>
<path d="M261.488 181.568C259.506 183.55 256.123 183.42 253.937 181.235C251.772 179.069 251.603 175.684 253.603 173.683C255.585 171.701 258.969 171.831 261.155 174.017C263.32 176.182 263.47 179.586 261.488 181.568Z" fill="#2F2FA2" fill-opacity="0.2"/>
<path d="M295.389 147.668C293.407 149.65 290.023 149.52 287.838 147.334C285.672 145.169 285.503 141.784 287.504 139.783C289.486 137.801 292.869 137.931 295.055 140.117C297.22 142.282 297.389 145.667 295.389 147.668Z" fill="#2F2FA2" fill-opacity="0.2"/>
<path d="M329.308 113.749C327.326 115.731 323.942 115.601 321.756 113.415C319.591 111.25 319.422 107.865 321.423 105.864C323.424 103.863 326.788 104.012 328.974 106.198C331.139 108.363 331.29 111.767 329.308 113.749Z" fill="#2F2FA2" fill-opacity="0.2"/>
<path d="M193.535 317.095C191.553 319.077 188.169 318.947 185.984 316.761C183.818 314.596 183.649 311.211 185.65 309.21C187.651 307.209 191.015 307.358 193.201 309.543C195.366 311.709 195.517 315.113 193.535 317.095Z" fill="#2F2FA2" fill-opacity="0.2"/>
<path d="M227.455 283.175C225.473 285.157 222.089 285.027 219.903 282.841C217.738 280.676 217.569 277.291 219.57 275.29C221.552 273.308 224.935 273.438 227.121 275.623C229.267 277.807 229.437 281.193 227.455 283.175Z" fill="#2F2FA2" fill-opacity="0.2"/>
<path d="M261.354 249.275C259.372 251.257 255.989 251.127 253.803 248.941C251.638 246.776 251.469 243.391 253.47 241.39C255.452 239.408 258.835 239.538 261.021 241.724C263.186 243.889 263.355 247.274 261.354 249.275Z" fill="#2F2FA2" fill-opacity="0.2"/>
<path d="M295.274 215.355C293.292 217.337 289.909 217.207 287.723 215.021C285.558 212.856 285.389 209.471 287.39 207.47C289.372 205.488 292.755 205.618 294.941 207.804C297.106 209.969 297.256 213.373 295.274 215.355Z" fill="#2F2FA2" fill-opacity="0.2"/>
<path d="M329.175 181.454C327.193 183.436 323.809 183.306 321.624 181.121C319.459 178.955 319.29 175.57 321.29 173.57C323.272 171.588 326.656 171.718 328.841 173.903C331.007 176.068 331.176 179.453 329.175 181.454Z" fill="#2F2FA2" fill-opacity="0.2"/>
<path d="M363.094 147.535C361.112 149.517 357.728 149.387 355.543 147.202C353.377 145.037 353.208 141.651 355.209 139.651C357.21 137.65 360.575 137.799 362.76 139.984C364.925 142.15 365.076 145.553 363.094 147.535Z" fill="#2F2FA2" fill-opacity="0.2"/>
<path d="M227.301 350.861C225.319 352.843 221.936 352.713 219.75 350.527C217.585 348.362 217.416 344.977 219.416 342.976C221.417 340.975 224.782 341.124 226.968 343.31C229.153 345.495 229.283 348.879 227.301 350.861Z" fill="#2F2FA2" fill-opacity="0.2"/>
<path d="M261.221 316.941C259.239 318.923 255.855 318.793 253.67 316.607C251.504 314.442 251.335 311.057 253.336 309.056C255.318 307.074 258.701 307.204 260.887 309.39C263.054 311.594 263.203 314.959 261.221 316.941Z" fill="#2F2FA2" fill-opacity="0.2"/>
<path d="M295.121 283.041C293.139 285.023 289.755 284.893 287.569 282.707C285.404 280.542 285.235 277.157 287.236 275.156C289.218 273.174 292.601 273.304 294.787 275.49C296.973 277.676 297.121 281.04 295.121 283.041Z" fill="#2F2FA2" fill-opacity="0.2"/>
<path d="M329.04 249.121C327.058 251.103 323.675 250.973 321.489 248.787C319.324 246.622 319.155 243.237 321.156 241.236C323.138 239.254 326.521 239.384 328.707 241.57C330.892 243.755 331.022 247.139 329.04 249.121Z" fill="#2F2FA2" fill-opacity="0.2"/>
<path d="M362.941 215.22C360.959 217.202 357.576 217.073 355.39 214.887C353.225 212.722 353.056 209.336 355.056 207.336C357.038 205.354 360.422 205.484 362.607 207.669C364.793 209.855 364.942 213.22 362.941 215.22Z" fill="#2F2FA2" fill-opacity="0.2"/>
<path d="M396.86 181.302C394.878 183.284 391.494 183.154 389.309 180.968C387.144 178.803 386.974 175.418 388.975 173.417C390.976 171.416 394.341 171.565 396.526 173.75C398.712 175.936 398.842 179.32 396.86 181.302Z" fill="#2F2FA2" fill-opacity="0.2"/>
</svg>
