<svg width="57" height="54" viewBox="0 0 57 54" fill="none" xmlns="http://www.w3.org/2000/svg">
<g clip-path="url(#clip0)">
<path d="M48.5529 39.1686V7.71501C48.5529 3.46091 44.8518 -6.10352e-05 40.3026 -6.10352e-05H5.77747V0.00128961C2.58675 0.0293414 0 2.46424 0 5.45445V14.0258H8.33288V17.4811C3.60969 18.2253 0 22.0761 0 26.7011C0 29.4643 1.28871 31.9508 3.33315 33.6642V46.7558L8.33288 43.639V45.4795C8.33288 49.7336 12.034 53.1945 16.5832 53.1945H51.1083V53.1931C54.2991 53.165 56.8858 50.7302 56.8858 47.7399V39.1686H48.5529ZM3.33315 5.45445C3.33315 4.16553 4.45454 3.11681 5.83302 3.11681C7.2115 3.11681 8.33288 4.16553 8.33288 5.45445V10.909H3.33315V5.45445ZM9.99946 20.4674C13.6753 20.4674 16.6658 23.2638 16.6658 26.7011C16.6658 30.1384 13.6753 32.9348 9.99946 32.9348C6.32366 32.9348 3.33315 30.1384 3.33315 26.7011C3.33315 23.2638 6.32366 20.4674 9.99946 20.4674ZM6.66631 35.5168C8.76119 36.2117 11.1266 36.2486 13.3326 35.5168V40.932L9.99946 38.8541L6.66631 40.932V35.5168ZM11.666 45.4794V43.6389L16.6658 46.7557V33.6642C18.7102 31.9509 19.9989 29.4643 19.9989 26.7011C19.9989 22.0761 16.3892 18.2253 11.666 17.4811C11.666 16.1806 11.666 6.94016 11.666 5.45445C11.666 4.6183 11.4633 3.82579 11.1021 3.11681H40.3026C43.0139 3.11681 45.2198 5.17955 45.2198 7.71501V47.7399C45.2198 48.5761 45.4225 49.3686 45.7837 50.0776H16.5832C13.8719 50.0776 11.666 48.015 11.666 45.4794ZM53.5527 47.7399C53.5527 49.0289 52.4312 50.0776 51.0528 50.0776C49.6744 50.0776 48.5529 49.0289 48.5529 47.7399V42.2854H53.5527V47.7399Z" fill="#090C9B"/>
<path d="M24.9987 9.35052H39.9978V12.4674H24.9987V9.35052Z" fill="#090C9B"/>
<path d="M24.9987 17.3505H39.9978V20.4673H24.9987V17.3505Z" fill="#090C9B"/>
<path d="M24.9987 25.1426H39.9978V28.2595H24.9987V25.1426Z" fill="#090C9B"/>
<path d="M24.9987 32.9348H39.9978V36.0517H24.9987V32.9348Z" fill="#090C9B"/>
<path d="M24.9987 40.727H39.9978V43.8439H24.9987V40.727Z" fill="#090C9B"/>
</g>
<defs>
<clipPath id="clip0">
<rect width="56.8858" height="53.1945" fill="white"/>
</clipPath>
</defs>
</svg>
