<svg width="39" height="39" viewBox="0 0 39 39" fill="none" xmlns="http://www.w3.org/2000/svg">
<path d="M26.51 14.8818H37.3147C37.7847 14.8818 38.2369 14.6955 38.5553 14.3707C38.8738 14.0456 39.0338 13.6071 38.994 13.1673C38.8439 11.5051 38.0413 9.96431 36.734 8.82866C36.3398 8.48626 35.9102 8.18995 35.4534 7.94278C36.3353 7.09947 36.88 5.94356 36.88 4.67027C36.88 2.09512 34.6515 0 31.9123 0C29.1731 0 26.9445 2.09512 26.9445 4.67034C26.9445 5.94364 27.4893 7.09955 28.3713 7.94285C27.9146 8.19003 27.4849 8.48634 27.0907 8.82873C25.7834 9.96431 24.9808 11.5052 24.8307 13.1674C24.791 13.6071 24.9509 14.0458 25.2695 14.3708C25.5878 14.6955 26.04 14.8818 26.51 14.8818ZM29.382 4.67034C29.382 3.35515 30.5171 2.28516 31.9123 2.28516C33.3075 2.28516 34.4425 3.35515 34.4425 4.67034C34.4425 5.98561 33.3075 7.05552 31.9123 7.05552C30.5171 7.05552 29.382 5.98553 29.382 4.67034ZM28.7474 10.5049C29.6117 9.75415 30.7357 9.34069 31.9123 9.34069C33.089 9.34069 34.2129 9.75415 35.0772 10.5049C35.7334 11.0749 36.1965 11.7998 36.4233 12.5966H27.4014C27.6282 11.7998 28.0912 11.075 28.7474 10.5049Z" fill="#52DEE5"/>
<path d="M6.39048 14.8818H17.195C17.6651 14.8818 18.1173 14.6955 18.4356 14.3707C18.7542 14.0456 18.9142 13.6071 18.8744 13.1673C18.7242 11.5051 17.9216 9.96431 16.6144 8.82866C16.2203 8.48626 15.7905 8.18995 15.3338 7.94278C16.2158 7.0994 16.7606 5.94356 16.7606 4.67027C16.7606 2.09512 14.5321 0 11.7928 0C9.05353 0 6.825 2.09512 6.825 4.67034C6.825 5.94364 7.36978 7.09955 8.25175 7.94285C7.79505 8.19003 7.36531 8.48634 6.97117 8.82873C5.66386 9.96439 4.86127 11.5052 4.7112 13.1674C4.67147 13.6071 4.83137 14.0457 5.14995 14.3708C5.46829 14.6955 5.92045 14.8818 6.39048 14.8818ZM9.2625 4.67034C9.2625 3.35515 10.3976 2.28516 11.7928 2.28516C13.188 2.28516 14.3231 3.35515 14.3231 4.67034C14.3231 5.98561 13.188 7.05552 11.7928 7.05552C10.3976 7.05552 9.2625 5.98553 9.2625 4.67034ZM8.62794 10.5049C9.4922 9.75415 10.6161 9.34069 11.7928 9.34069C12.9695 9.34069 14.0934 9.75415 14.9576 10.5049C15.6139 11.0749 16.0769 11.7998 16.3037 12.5966H7.28179C7.50856 11.7998 7.9716 11.075 8.62794 10.5049Z" fill="#52DEE5"/>
<path d="M36.7345 27.8455C36.3402 27.5031 35.9106 27.2068 35.4538 26.9596C36.3357 26.1163 36.8805 24.9604 36.8805 23.6872C36.8805 21.1119 34.6519 19.0169 31.9128 19.0169C29.1735 19.0169 26.945 21.112 26.945 23.6872C26.945 24.9604 27.4897 26.1163 28.3717 26.9596C27.915 27.2068 27.4853 27.5031 27.0911 27.8455C25.7838 28.9811 24.9812 30.5219 24.8312 32.1842C24.7914 32.6239 24.9513 33.0626 25.2699 33.3876C25.5883 33.7124 26.0403 33.8986 26.5104 33.8986H37.3151C37.7851 33.8986 38.2373 33.7124 38.5557 33.3876C38.8743 33.0626 39.0342 32.624 38.9944 32.1842C38.8444 30.5219 38.0418 28.9811 36.7345 27.8455ZM29.3826 23.6872C29.3826 22.3719 30.5176 21.302 31.9128 21.302C33.308 21.302 34.4431 22.372 34.4431 23.6872C34.4431 25.0024 33.308 26.0724 31.9128 26.0724C30.5176 26.0723 29.3826 25.0023 29.3826 23.6872ZM27.4019 31.6134C27.6287 30.8166 28.0917 30.0916 28.7479 29.5216C29.6122 28.7709 30.7362 28.3574 31.9128 28.3574C33.0895 28.3574 34.2134 28.7709 35.0777 29.5216C35.734 30.0916 36.197 30.8166 36.4238 31.6134H27.4019Z" fill="#52DEE5"/>
<path d="M11.7927 17.1748C5.88821 17.1748 1.08463 21.6787 1.08463 27.2147C1.08463 29.7573 2.09798 32.0823 3.76596 33.8532L0.35687 37.0496C-0.119011 37.4958 -0.11893 38.2193 0.356952 38.6655C0.594933 38.8885 0.906771 39 1.21869 39C1.53061 39 1.84261 38.8884 2.08051 38.6653L5.57784 35.3861C7.33137 36.5619 9.47735 37.2544 11.7927 37.2544C17.6971 37.2544 22.5007 32.7506 22.5007 27.2146C22.5007 21.6785 17.6971 17.1748 11.7927 17.1748ZM11.7927 34.9693C7.23225 34.9693 3.52213 31.4906 3.52213 27.2146C3.52213 22.9387 7.23225 19.4599 11.7927 19.4599C16.3531 19.4599 20.0632 22.9387 20.0632 27.2146C20.0632 31.4906 16.3531 34.9693 11.7927 34.9693Z" fill="#52DEE5"/>
<path d="M15.1915 24.1225L10.3385 28.673L8.39211 26.848C7.91615 26.4018 7.14452 26.4019 6.66848 26.8479C6.19259 27.294 6.19251 28.0176 6.66839 28.4639L9.47664 31.097C9.7147 31.3202 10.0266 31.4318 10.3385 31.4318C10.6503 31.4318 10.9623 31.3202 11.2002 31.0971L11.2003 31.097L16.9152 25.7384C17.391 25.2921 17.391 24.5686 16.9151 24.1223C16.439 23.6762 15.6674 23.6762 15.1915 24.1225Z" fill="#52DEE5"/>
</svg>
