<svg width="57" height="54" viewBox="0 0 57 54" fill="none" xmlns="http://www.w3.org/2000/svg">
<g clip-path="url(#clip0)">
<path d="M52.3305 27.3049C54.8798 27.0938 56.8858 25.087 56.8858 22.6491V8.1037C56.8858 5.52574 54.6429 3.42841 51.8861 3.42841H35.3314C32.5746 3.42841 30.3317 5.52574 30.3317 8.1037V14.2335H9.55504C6.79819 14.2335 4.55531 16.3309 4.55531 18.9088V37.61C4.55531 38.1563 4.65697 38.6807 4.84196 39.1685H2.99984C1.34571 39.1685 0 40.4269 0 41.9737C0 46.2702 3.73813 49.7658 8.33288 49.7658H48.5529C53.1477 49.7658 56.8858 46.2702 56.8858 41.9737C56.8858 40.4269 55.5401 39.1685 53.886 39.1685H52.0439C52.2288 38.6807 52.3305 38.1563 52.3305 37.61V27.3049ZM33.6648 8.1037C33.6648 7.24439 34.4125 6.54527 35.3314 6.54527H51.8861C52.805 6.54527 53.5527 7.24439 53.5527 8.1037V22.6491C53.5527 23.5084 52.805 24.2075 51.8861 24.2075H36.4425C36.13 24.2075 35.8241 24.2896 35.5592 24.4444L32.1989 26.4083L33.5946 22.0579C33.6412 21.9127 33.6648 21.7618 33.6648 21.6101V8.1037ZM48.5529 46.6489H8.33288C5.68803 46.6489 3.51637 44.7185 3.34415 42.2853H53.5417C53.3694 44.7185 51.1978 46.6489 48.5529 46.6489ZM15.888 27.4283C15.888 26.4544 16.7353 25.6621 17.7768 25.6621C18.8183 25.6621 19.6656 26.4544 19.6656 27.4283C19.6656 28.4022 18.8183 29.1945 17.7768 29.1945C16.7353 29.1945 15.888 28.4022 15.888 27.4283ZM14.9992 34.0776C14.9992 33.1367 16.2971 32.3114 17.7768 32.3114C18.5703 32.3114 19.3348 32.5428 19.8744 32.9465C20.1285 33.1365 20.5544 33.5361 20.5544 34.0776V39.1685H14.9992V34.0776ZM23.8876 39.1685V34.0776C23.8876 32.7301 23.1839 31.4306 21.9566 30.5126C21.929 30.4919 21.9003 30.4726 21.8723 30.4525C22.5767 29.6201 22.9988 28.5697 22.9988 27.4283C22.9988 24.7357 20.6562 22.5452 17.7768 22.5452C14.8974 22.5452 12.5549 24.7357 12.5549 27.4283C12.5549 28.571 12.978 29.6223 13.6837 30.4552C12.4455 31.3494 11.666 32.6421 11.666 34.0776V39.1685H9.55504C8.63609 39.1685 7.88846 38.4694 7.88846 37.61V18.9088C7.88846 18.0495 8.63609 17.3504 9.55504 17.3504H30.3317V21.3815L29.0063 25.5126C28.6038 26.7673 29.0632 28.0915 30.1768 28.8861C30.7767 29.3142 31.4847 29.5305 32.1961 29.5305C32.8055 29.5305 33.4173 29.3717 33.9653 29.0514L36.9204 27.3244H48.9974V37.61C48.9974 38.4694 48.2497 39.1685 47.3308 39.1685H23.8876Z" fill="#090C9B"/>
<path d="M45.3309 17.5582H41.7755C40.8551 17.5582 40.1089 18.256 40.1089 19.1167C40.1089 19.9773 40.8551 20.6751 41.7755 20.6751H45.3309C46.2513 20.6751 46.9975 19.9773 46.9975 19.1167C46.9975 18.256 46.2513 17.5582 45.3309 17.5582Z" fill="#090C9B"/>
<path d="M39.109 13.1946H47.9974C48.9178 13.1946 49.664 12.4968 49.664 11.6361C49.664 10.7755 48.9178 10.0777 47.9974 10.0777H39.109C38.1886 10.0777 37.4424 10.7755 37.4424 11.6361C37.4424 12.4968 38.1886 13.1946 39.109 13.1946Z" fill="#090C9B"/>
</g>
<defs>
<clipPath id="clip0">
<rect width="56.8858" height="53.1945" fill="white" transform="translate(0 -0.00012207)"/>
</clipPath>
</defs>
</svg>
