<svg width="225" height="39" viewBox="0 0 225 39" fill="none" xmlns="http://www.w3.org/2000/svg">
<g clip-path="url(#clip0_752:564)">
<path d="M25.3474 38.5842L1.0467 21.9483C0.728011 21.7303 0.466469 21.4387 0.284223 21.098C0.101978 20.7574 0.00439731 20.3778 -0.000252866 19.9913C-0.00490304 19.6049 0.0835138 19.223 0.257509 18.8781C0.431504 18.5331 0.685952 18.2353 0.999301 18.0097L25.3676 0.452622C25.824 0.122979 26.3816 -0.0357669 26.943 0.00406829C27.5044 0.0439035 28.034 0.279791 28.4395 0.6706L35.4364 7.40337C35.6931 7.65021 35.8918 7.95108 36.0181 8.28424C36.1444 8.61739 36.1952 8.97449 36.1668 9.32971C36.1384 9.68493 36.0315 10.0294 35.8539 10.3382C35.6763 10.647 35.4324 10.9124 35.1398 11.1152L25.9732 17.4753C11.7484 17.6142 11.787 21.5949 26.0127 21.4561L35.1047 27.5094C35.401 27.7064 35.6499 27.9669 35.8334 28.272C36.0169 28.5772 36.1304 28.9193 36.1657 29.2737C36.2011 29.6281 36.1574 29.986 36.0378 30.3214C35.9182 30.6568 35.7257 30.9615 35.4742 31.2133L28.4009 38.2968C28.0052 38.6938 27.4835 38.9398 26.9259 38.9923C26.3683 39.0447 25.8099 38.9004 25.3474 38.5842Z" fill="#52DEE5"/>
<path d="M60.7499 22.3605H49.3338C49.2348 22.3603 49.1378 22.3879 49.0539 22.4404C48.9699 22.4928 48.9024 22.5678 48.8591 22.6569C48.8157 22.746 48.7983 22.8455 48.8089 22.944C48.8194 23.0425 48.8574 23.1361 48.9186 23.214C49.7463 24.2336 51.3349 24.6862 52.5172 24.6862C54.305 24.6862 55.7067 24.2098 56.8284 23.4706C56.9337 23.401 57.0605 23.3716 57.1857 23.3877C57.3108 23.4039 57.4261 23.4645 57.5103 23.5585L60.1671 26.5426C60.2144 26.5955 60.2505 26.6575 60.2733 26.7248C60.296 26.7921 60.305 26.8633 60.2995 26.9342C60.2941 27.005 60.2745 27.0741 60.2418 27.1371C60.2091 27.2002 60.164 27.2559 60.1092 27.3011C57.9764 29.0871 55.166 29.9652 52.2249 29.9652C46.4742 29.9652 41.6048 27.1227 41.6048 20.4778C41.6048 13.8329 46.8025 10.8796 51.7422 10.8796C58.0615 10.8796 62.5439 14.9914 61.2651 21.9298C61.2427 22.0504 61.1789 22.1594 61.0849 22.238C60.9909 22.3166 60.8724 22.3599 60.7499 22.3605ZM54.8922 17.2424C53.9267 15.3623 49.9201 15.2955 48.7799 17.2151C48.7337 17.2954 48.7093 17.3864 48.7094 17.4791C48.7094 17.5718 48.7339 17.6628 48.7802 17.743C48.8266 17.8232 48.8933 17.8898 48.9735 17.936C49.0537 17.9822 49.1447 18.0064 49.2372 18.0062H54.4156C54.5059 18.0072 54.595 17.9849 54.6742 17.9415C54.7535 17.8981 54.8202 17.835 54.8681 17.7583C54.9159 17.6816 54.9433 17.5939 54.9475 17.5035C54.9517 17.4131 54.9327 17.3232 54.8922 17.2424Z" fill="white"/>
<path d="M77.2648 29.5591C77.1252 29.5591 76.9912 29.5035 76.8925 29.4046C76.7937 29.3057 76.7382 29.1716 76.7382 29.0317V19.481C76.7382 17.2291 75.448 16.4539 74.1929 16.4539C72.5709 16.4539 71.0596 17.5614 71.0596 19.9609V29.0317C71.0596 29.1716 71.0041 29.3057 70.9053 29.4046C70.8066 29.5035 70.6726 29.5591 70.5329 29.5591H64.8788C64.7392 29.5591 64.6052 29.5035 64.5065 29.4046C64.4077 29.3057 64.3522 29.1716 64.3522 29.0317V11.8499C64.3522 11.7101 64.4077 11.5759 64.5065 11.477C64.6052 11.3781 64.7392 11.3226 64.8788 11.3226H69.9063C70.0326 11.3225 70.1548 11.3679 70.2505 11.4505C70.3462 11.5331 70.4091 11.6474 70.4276 11.7726L70.5031 12.2824C70.5168 12.3752 70.555 12.4626 70.6137 12.5357C70.6723 12.6088 70.7494 12.6649 70.837 12.6982C70.9245 12.7315 71.0194 12.7408 71.1117 12.7252C71.2041 12.7096 71.2906 12.6696 71.3624 12.6094C72.8544 11.3314 74.7634 10.8515 76.4065 10.8796C80.2402 10.9165 83.521 12.9469 83.521 19.4441V29.0317C83.521 29.1716 83.4655 29.3057 83.3668 29.4046C83.268 29.5035 83.1341 29.5591 82.9944 29.5591H77.2648Z" fill="white"/>
<path d="M107.076 20.4778C107.076 27.1226 101.805 30.0021 96.6806 30.0021C91.4469 30.0021 86.2861 27.1226 86.2861 20.4778C86.2861 13.7221 91.41 10.9165 96.6806 10.9165C102.063 10.9165 107.076 13.8329 107.076 20.4778ZM100.441 20.4778C100.441 18.3735 99.0767 16.4908 96.6806 16.4908C94.2845 16.4908 92.9249 18.3735 92.9249 20.4778C92.9249 22.582 94.2889 24.4278 96.6841 24.4278C98.9661 24.4278 100.441 22.6927 100.441 20.4778Z" fill="white"/>
<path d="M116.371 16.4345L118.152 21.819C118.164 21.8524 118.187 21.8811 118.216 21.9013C118.245 21.9216 118.28 21.9324 118.316 21.9324C118.351 21.9324 118.386 21.9216 118.415 21.9013C118.445 21.8811 118.467 21.8524 118.48 21.819L120.158 16.4407C120.158 16.4293 120.165 16.4187 120.169 16.4082L121.987 11.668C122.025 11.5684 122.093 11.4828 122.18 11.4224C122.268 11.362 122.372 11.3296 122.479 11.3296H128.52C128.606 11.3296 128.691 11.3509 128.768 11.3917C128.844 11.4324 128.909 11.4914 128.957 11.5633C129.005 11.6353 129.035 11.718 129.044 11.8041C129.052 11.8903 129.04 11.9773 129.007 12.0574L121.919 29.3499C121.879 29.4466 121.811 29.5293 121.725 29.5875C121.638 29.6458 121.536 29.6768 121.431 29.6768H115.386C115.283 29.6768 115.182 29.6466 115.096 29.5899C115.01 29.5332 114.943 29.4525 114.902 29.3578L107.502 12.0653C107.467 11.985 107.453 11.8974 107.461 11.8104C107.469 11.7233 107.498 11.6396 107.546 11.5666C107.594 11.4937 107.659 11.4338 107.736 11.3924C107.813 11.3511 107.899 11.3295 107.986 11.3296H114.016C114.122 11.3296 114.225 11.3616 114.313 11.4215C114.4 11.4814 114.468 11.5664 114.506 11.6653L116.361 16.4117L116.371 16.4345Z" fill="white"/>
<path d="M148.746 22.3605H137.325C137.226 22.3604 137.129 22.3882 137.045 22.4407C136.961 22.4932 136.894 22.5683 136.851 22.6573C136.807 22.7464 136.79 22.8458 136.801 22.9442C136.811 23.0427 136.849 23.1362 136.91 23.214C137.738 24.2336 139.327 24.6862 140.509 24.6862C142.297 24.6862 143.698 24.2098 144.82 23.4706C144.925 23.401 145.052 23.3716 145.177 23.3877C145.303 23.4039 145.418 23.4645 145.502 23.5585L148.158 26.5426C148.205 26.5955 148.241 26.6574 148.264 26.7247C148.287 26.792 148.296 26.8632 148.291 26.934C148.285 27.0049 148.266 27.0739 148.233 27.137C148.201 27.2 148.156 27.2559 148.101 27.3011C145.968 29.0871 143.157 29.9652 140.217 29.9652C134.466 29.9652 129.597 27.1227 129.597 20.4778C129.597 13.8329 134.794 10.8796 139.734 10.8796C146.053 10.8796 150.536 14.9914 149.257 21.9298C149.235 22.0497 149.171 22.1581 149.078 22.2366C148.985 22.3151 148.868 22.3589 148.746 22.3605ZM142.887 17.2424C141.922 15.3623 137.916 15.2955 136.776 17.2151C136.73 17.2954 136.705 17.3864 136.706 17.4791C136.706 17.5718 136.73 17.6628 136.776 17.743C136.823 17.8232 136.889 17.8898 136.97 17.936C137.05 17.9822 137.141 18.0064 137.233 18.0062H142.412C142.502 18.0063 142.59 17.9833 142.669 17.9396C142.747 17.8958 142.813 17.8326 142.86 17.756C142.908 17.6795 142.934 17.5921 142.938 17.5022C142.942 17.4123 142.923 17.3228 142.883 17.2424H142.887Z" fill="white"/>
<path d="M158.512 11.7454L158.595 12.1506C158.614 12.2453 158.659 12.3328 158.724 12.4038C158.79 12.4747 158.873 12.5263 158.966 12.5528C159.059 12.5794 159.157 12.58 159.25 12.5544C159.343 12.5289 159.427 12.4783 159.494 12.4081C160.475 11.3534 161.841 10.8796 163.255 10.8796C164.948 10.8796 166.577 11.4712 167.746 12.5382C167.834 12.6182 167.893 12.726 167.912 12.8438C167.932 12.9616 167.911 13.0826 167.853 13.1869L165.612 17.2213C165.577 17.2849 165.529 17.3406 165.471 17.3847C165.413 17.4288 165.346 17.4604 165.276 17.4776C165.205 17.4948 165.132 17.4971 165.06 17.4845C164.988 17.4718 164.92 17.4445 164.86 17.4041C163.974 16.8011 163.239 16.6385 162.26 16.6385C160.565 16.6385 159.128 17.6722 159.128 20.0717V29.0318C159.128 29.1716 159.072 29.3058 158.973 29.4047C158.875 29.5036 158.741 29.5591 158.601 29.5591H152.871C152.732 29.5591 152.598 29.5036 152.499 29.4047C152.4 29.3058 152.345 29.1716 152.345 29.0318V11.85C152.345 11.7101 152.4 11.576 152.499 11.4771C152.598 11.3782 152.732 11.3226 152.871 11.3226H157.996C158.118 11.3226 158.236 11.3648 158.33 11.4418C158.424 11.5189 158.488 11.6261 158.512 11.7454Z" fill="white"/>
<path d="M176.452 4.20852V29.0319C176.452 29.1718 176.397 29.3059 176.298 29.4048C176.199 29.5037 176.065 29.5593 175.926 29.5593H170.27C170.13 29.5593 169.996 29.5037 169.897 29.4048C169.799 29.3059 169.743 29.1718 169.743 29.0319V4.20852C169.743 4.06866 169.799 3.93451 169.897 3.83561C169.996 3.73671 170.13 3.68115 170.27 3.68115H175.926C176.065 3.68115 176.199 3.73671 176.298 3.83561C176.397 3.93451 176.452 4.06866 176.452 4.20852Z" fill="white"/>
<path d="M194.406 11.3226H199.812C199.952 11.3226 200.086 11.3781 200.184 11.4771C200.283 11.576 200.339 11.7101 200.339 11.85V29.0317C200.339 29.1716 200.283 29.3057 200.184 29.4046C200.086 29.5035 199.952 29.5591 199.812 29.5591H194.526C194.4 29.5592 194.278 29.5141 194.182 29.4318C194.086 29.3496 194.023 29.2357 194.004 29.1108L193.93 28.6125C193.916 28.5209 193.878 28.4345 193.821 28.3622C193.763 28.2898 193.687 28.2339 193.601 28.2001C193.515 28.1664 193.421 28.1559 193.33 28.1698C193.239 28.1837 193.152 28.2215 193.08 28.2793C191.557 29.5354 189.513 29.9871 187.769 29.8913C182.424 29.5591 179.438 25.7603 179.438 20.4408C179.438 15.0511 182.977 10.9165 188.285 10.9165C190.341 10.9165 191.905 11.479 192.937 12.4538C193.006 12.5185 193.092 12.5633 193.185 12.5833C193.277 12.6034 193.374 12.598 193.464 12.5678C193.554 12.5375 193.634 12.4835 193.695 12.4115C193.757 12.3394 193.798 12.252 193.815 12.1585L193.882 11.7621C193.903 11.6384 193.967 11.5262 194.063 11.4456C194.159 11.3651 194.281 11.3215 194.406 11.3226ZM186.183 20.4408C186.183 22.9898 187.806 24.4278 189.833 24.4278C192.119 24.4278 193.593 22.582 193.593 20.4408C193.593 18.0044 192.229 16.417 189.833 16.417C187.803 16.417 186.183 17.8936 186.183 20.4408Z" fill="white"/>
<path d="M211.103 11.661C211.103 11.7586 211.13 11.8542 211.181 11.9373C211.232 12.0204 211.305 12.0877 211.392 12.1317C211.479 12.1757 211.576 12.1947 211.673 12.1865C211.771 12.1784 211.863 12.1434 211.942 12.0855C212.961 11.3446 214.386 10.9165 216.155 10.9165C221.463 10.9165 225.002 14.8665 225.002 20.4408C225.002 26.1997 222.018 29.5591 216.671 29.8913C214.927 29.9871 212.883 29.5398 211.36 28.2793C211.288 28.2215 211.202 28.1837 211.11 28.1698C211.019 28.1559 210.925 28.1664 210.839 28.2001C210.753 28.2339 210.677 28.2898 210.62 28.3622C210.562 28.4346 210.524 28.5209 210.51 28.6125L210.435 29.1108C210.416 29.2355 210.353 29.3493 210.258 29.4316C210.162 29.5138 210.04 29.5591 209.914 29.5591H204.848C204.709 29.5591 204.575 29.5035 204.476 29.4046C204.377 29.3057 204.322 29.1716 204.322 29.0317V4.24527C204.322 4.1054 204.377 3.97127 204.476 3.87237C204.575 3.77347 204.709 3.7179 204.848 3.7179H210.578C210.718 3.7179 210.852 3.77347 210.95 3.87237C211.049 3.97127 211.105 4.1054 211.105 4.24527L211.103 11.661ZM210.955 20.6263C210.955 22.5459 212.319 24.4286 214.605 24.4286C216.632 24.4286 218.254 22.9889 218.254 20.4417C218.254 17.8945 216.632 16.4179 214.605 16.4179C212.209 16.417 210.955 18.4105 210.955 20.6254V20.6263Z" fill="white"/>
</g>
<defs>
<clipPath id="clip0_752:564">
<rect width="225" height="39" fill="white"/>
</clipPath>
</defs>
</svg>
