<svg width="39" height="39" viewBox="0 0 39 39" fill="none" xmlns="http://www.w3.org/2000/svg">
<g clip-path="url(#clip0)">
<path d="M37.8549 32.4626H35.55V17.2176C35.55 16.5863 35.0373 16.0745 34.4049 16.0745H28.0826C27.4503 16.0745 26.9376 16.5863 26.9376 17.2176V32.4626H23.8062V12.6886C23.8062 12.0572 23.2935 11.5454 22.6612 11.5454H16.3389C15.7065 11.5454 15.1938 12.0572 15.1938 12.6886V32.4626H12.0625V16.0079C12.0625 15.3765 11.5498 14.8647 10.9174 14.8647H4.59505C3.96266 14.8647 3.45 15.3765 3.45 16.0079V32.4626H1.14504C0.512647 32.4626 -1.52588e-05 32.9744 -1.52588e-05 33.6058C-1.52588e-05 34.2371 0.512647 34.7489 1.14504 34.7489H37.8549C38.4873 34.7489 39 34.2371 39 33.6058C39 32.9744 38.4873 32.4626 37.8549 32.4626ZM5.7401 32.4626V17.151H9.77235V32.4626H5.7401ZM17.4839 32.4626V13.8317H21.5161V32.4626H17.4839ZM29.2277 32.4626V18.3608H33.2599V32.4626H29.2277Z" fill="#52DEE5"/>
<path d="M38.1631 8.60145C38.201 8.12369 37.9226 7.53703 37.2849 7.38865L33.5914 6.4909C32.9777 6.3413 32.3597 6.71816 32.2107 7.33164C32.0615 7.94513 32.4379 8.56335 33.0514 8.71241L34.0961 8.96634L31.1347 10.7938L19.9063 4.40131C19.5835 4.21741 19.1911 4.20194 18.8551 4.35992L7.69385 9.59873L2.35833 6.2689C1.82281 5.93442 1.11764 6.09781 0.783309 6.63341C0.449053 7.16894 0.612294 7.8741 1.1479 8.20844L7.01116 11.8676C7.34016 12.073 7.75093 12.0976 8.10211 11.9327L19.2901 6.68127L30.5927 13.116C30.8868 13.2703 31.2968 13.3502 31.7587 13.0954L35.3485 10.88L35.1094 11.9997C34.8464 13.4891 36.9547 13.912 37.3453 12.4772L38.1377 8.76629C38.1467 8.71432 38.1501 8.72163 38.1631 8.60145Z" fill="#52DEE5"/>
</g>
<defs>
<clipPath id="clip0">
<rect width="39" height="39" fill="white"/>
</clipPath>
</defs>
</svg>
