<svg width="34" height="34" viewBox="0 0 34 34" fill="none" xmlns="http://www.w3.org/2000/svg">
<g clip-path="url(#clip0)">
<path d="M17 34C26.3888 34 34 26.3888 34 17C34 7.61116 26.3888 0 17 0C7.61116 0 0 7.61116 0 17C0 26.3888 7.61116 34 17 34Z" fill="#FFD93B"/>
<path d="M17.0001 27.9267C12.0287 27.9267 7.69689 24.5597 6.46651 19.7402C6.36982 19.3609 6.59826 18.9752 6.97757 18.8785C7.35476 18.7797 7.74151 19.0102 7.8382 19.3895C8.9092 23.5822 12.6758 26.5104 16.9991 26.5104C21.3224 26.5104 25.09 23.5822 26.1599 19.3895C26.2556 19.0102 26.6413 18.7797 27.0216 18.8785C27.4009 18.9752 27.6294 19.3609 27.5327 19.7402C26.3034 24.5597 21.9716 27.9267 17.0001 27.9267Z" fill="#3E4347"/>
<path d="M34 17C34 26.3925 26.3872 34 17 34C11.6557 34 6.88504 31.535 3.7666 27.6729C6.68316 30.0316 10.3966 31.4394 14.4394 31.4394C23.8266 31.4394 31.4394 23.8319 31.4394 14.4394C31.4394 10.3966 30.0316 6.68316 27.6729 3.7666C31.5297 6.88504 34 11.6557 34 17Z" fill="#F4C534"/>
<path d="M11.51 17.7257C12.9489 17.7257 14.1153 16.3395 14.1153 14.6296C14.1153 12.9196 12.9489 11.5334 11.51 11.5334C10.0712 11.5334 8.90479 12.9196 8.90479 14.6296C8.90479 16.3395 10.0712 17.7257 11.51 17.7257Z" fill="#3E4347"/>
<path d="M12.6852 13.9634C12.4823 14.1227 12.1487 14.0441 11.9351 13.7849C11.7215 13.5256 11.7109 13.1782 11.9139 13.0188C12.1157 12.852 12.4504 12.9306 12.6629 13.1899C12.8775 13.4565 12.8797 13.7976 12.6852 13.9634Z" fill="#5A5F63"/>
<path d="M22.4932 17.7257C23.932 17.7257 25.0984 16.3395 25.0984 14.6296C25.0984 12.9196 23.932 11.5334 22.4932 11.5334C21.0543 11.5334 19.8879 12.9196 19.8879 14.6296C19.8879 16.3395 21.0543 17.7257 22.4932 17.7257Z" fill="#3E4347"/>
<path d="M23.6662 13.9634C23.4633 14.1227 23.1296 14.0441 22.9161 13.7849C22.7025 13.5256 22.6919 13.1782 22.8948 13.0188C23.0967 12.852 23.4303 12.9306 23.6439 13.1899C23.8585 13.4565 23.8606 13.7976 23.6662 13.9634Z" fill="#5A5F63"/>
</g>
<defs>
<clipPath id="clip0">
<rect width="34" height="34" fill="white"/>
</clipPath>
</defs>
</svg>
